# xmcd CD database file
#
# Track frame offsets:
#	150
#	15296
#	35641
#	55244
#	75939
#	96824
#	114895
#	140320
#	163735
#	188628
#	204408
#
# Disc length: 3054 seconds
#
# Revision: 2
# Processed by: cddbd v1.5.1PL2 Copyright (c) Steve Scherf et al.
# Submitted via: CDex 1.70beta1
#
DISCID=7c0bec0b
DTITLE=Antoine Berthiaume - Ellen's Bar
DYEAR=2006
DGENRE=Jazz
TTITLE0=Attitude Frank
TTITLE1=Mr. Suozzi
TTITLE2=Le Dauphin
TTITLE3=Le Dentiste
TTITLE4=Nose Worthy
TTITLE5=Weiny
TTITLE6=Mooies
TTITLE7=Ellen's Bar
TTITLE8=Magnolia
TTITLE9=La Bettrave
TTITLE10=Famous Roldan
EXTD=YEAR: 2006
EXTT0=
EXTT1=
EXTT2=
EXTT3=
EXTT4=
EXTT5=
EXTT6=
EXTT7=
EXTT8=
EXTT9=
EXTT10=
PLAYORDER=
